<?xml version="1.0" standalone="no"?>
<!DOCTYPE svg PUBLIC "-//W3C//DTD SVG 20010904//EN"
 "http://www.w3.org/TR/2001/REC-SVG-20010904/DTD/svg10.dtd">
<svg version="1.0" xmlns="http://www.w3.org/2000/svg"
 width="584.000000pt" height="584.000000pt" viewBox="0 0 584.000000 584.000000"
 preserveAspectRatio="xMidYMid meet">
<metadata>
Created by potrace 1.14, written by Peter Selinger 2001-2017
</metadata>
<g transform="translate(0.000000,584.000000) scale(0.100000,-0.100000)"
fill="#000000" stroke="none">
<path d="M2818 5835 c-2 -2 -35 -6 -73 -10 -117 -10 -173 -18 -320 -45 -57
-11 -72 -14 -135 -29 -25 -7 -56 -14 -70 -17 -27 -5 -235 -70 -260 -81 -8 -3
-20 -7 -26 -8 -6 -2 -27 -10 -45 -18 -19 -8 -70 -30 -114 -48 -79 -33 -237
-112 -305 -152 -64 -38 -205 -131 -224 -149 -11 -10 -25 -18 -32 -18 -7 0 -14
-3 -16 -7 -1 -5 -25 -26 -53 -47 -83 -66 -276 -251 -345 -332 -57 -66 -108
-132 -140 -179 -19 -27 -37 -51 -42 -53 -4 -2 -8 -9 -8 -16 0 -7 -11 -26 -25
-42 -14 -16 -25 -33 -25 -38 0 -5 -6 -17 -14 -25 -7 -9 -31 -50 -54 -92 -22
-42 -45 -85 -51 -95 -26 -47 -86 -187 -118 -274 -18 -52 -36 -102 -40 -110 -3
-8 -7 -17 -8 -20 -3 -9 -28 -95 -31 -105 -20 -68 -51 -195 -48 -195 2 0 0 -10
-5 -23 -9 -24 -15 -53 -27 -142 -3 -27 -8 -59 -10 -70 -26 -128 -25 -642 1
-745 2 -8 7 -40 10 -70 3 -30 8 -63 11 -72 5 -18 11 -46 20 -93 20 -115 110
-406 164 -530 66 -153 232 -465 252 -473 4 -2 8 -8 8 -13 0 -18 157 -232 249
-339 79 -92 253 -266 341 -342 83 -71 267 -208 279 -208 5 0 11 -4 13 -9 5
-13 223 -141 323 -190 50 -24 102 -50 117 -57 61 -32 349 -137 405 -147 10 -2
25 -7 33 -10 20 -8 176 -44 220 -51 19 -3 67 -10 105 -16 39 -5 88 -13 110
-16 56 -10 476 -10 555 -1 167 19 315 45 400 71 25 7 47 14 50 14 12 2 195 60
265 85 88 31 366 176 475 248 69 45 127 85 130 88 3 4 44 38 92 76 80 64 318
295 318 309 0 3 8 14 18 24 51 54 242 318 242 335 0 3 17 34 38 68 46 76 142
274 142 292 0 7 4 17 8 22 17 20 117 312 128 375 3 14 10 43 16 65 20 77 23
101 22 195 0 150 -48 263 -154 370 -112 112 -236 162 -405 161 -33 0 -75 -5
-93 -10 -18 -5 -36 -11 -40 -12 -30 -8 -44 -14 -102 -42 -148 -72 -259 -229
-286 -402 -4 -26 -21 -131 -29 -175 -8 -41 -39 -149 -62 -213 -166 -465 -544
-847 -998 -1007 -33 -12 -67 -24 -75 -27 -8 -3 -19 -7 -25 -8 -5 -2 -37 -10
-70 -18 -75 -20 -108 -26 -165 -32 -25 -3 -70 -9 -100 -14 -53 -8 -354 -7
-415 3 -16 2 -48 7 -70 10 -52 7 -205 40 -245 53 -8 2 -15 4 -15 3 0 -2 -216
76 -250 91 -16 7 -32 13 -35 13 -20 5 -183 91 -265 140 -191 114 -352 241
-505 399 -102 105 -92 94 -172 198 -98 127 -148 206 -229 364 -74 143 -159
361 -184 470 -1 6 -5 17 -8 25 -8 20 -45 203 -52 255 -2 22 -7 51 -10 65 -13
68 -27 413 -17 433 2 4 5 43 8 85 2 42 6 88 9 102 3 14 7 43 10 65 11 79 37
192 68 290 17 55 32 105 33 110 2 11 41 119 54 150 33 80 122 254 167 325 29
47 59 94 66 105 6 10 17 24 22 30 6 7 19 24 30 40 96 136 337 372 474 464 20
14 38 27 41 30 3 3 23 18 45 32 321 211 642 343 1035 424 8 1 49 8 90 15 41 6
86 13 100 16 45 7 164 18 207 18 24 1 43 3 43 6 0 3 59 5 130 5 72 0 130 -2
130 -5 0 -3 33 -5 73 -6 118 -2 298 -23 422 -51 17 -4 32 -7 35 -8 50 -10 77
-15 85 -16 6 -1 20 -5 33 -10 13 -5 37 -11 55 -14 17 -4 37 -11 44 -17 7 -6
13 -7 13 -4 0 4 8 2 18 -3 11 -6 30 -12 43 -15 27 -5 141 -47 191 -70 123 -55
152 -66 165 -62 11 5 11 9 1 25 -7 11 -19 22 -28 25 -8 3 -51 24 -95 48 -86
46 -249 120 -320 144 -125 43 -252 85 -269 89 -11 2 -31 6 -43 9 -74 19 -157
38 -178 41 -69 12 -125 21 -200 30 -33 3 -71 9 -85 12 -29 6 -536 14 -542 8z"/>
</g>
</svg>
