<?xml version="1.0" encoding="utf-8"?>
<svg id="master-artboard" viewBox="0 0 506 115" version="1.1" xmlns="http://www.w3.org/2000/svg" x="0px" y="0px" style="enable-background:new 0 0 850.4 1133.9;" width="506px" height="115px" xmlns:xlink="http://www.w3.org/1999/xlink"><rect id="ee-background" x="0" y="0" width="506" height="115" style="fill: white; fill-opacity: 0; pointer-events: none;"/>

<defs>
		<path d="M 0 0 H 850.400024 V 1133.900024 H 0 V 0 Z" id="SVGID_1_"/>
	<style id="ee-google-fonts">@import url(https://fonts.googleapis.com/css?family=Strait:400);</style></defs><clipPath id="SVGID_2_">
		<use style="overflow:visible;" xlink:href="#SVGID_1_"/>
	</clipPath>
<path d="M 16.573749542236328 105 L 4.963749885559082 105 L 26.873750686645508 12.610000610351562 L 46.14374923706055 12.610000610351562 L 68.05374908447266 105 L 56.443748474121094 105 L 51.02375030517578 81.63999938964844 L 21.993749618530273 81.63999938964844 L 16.573749542236328 105 M 48.783748626708984 72.4000015258789 L 36.903751373291016 21.050003051757812 L 36.11375045776367 21.050003051757812 L 24.103750228881836 72.4000015258789 L 48.783748626708984 72.4000015258789 ZM 90.72227478027344 105 L 79.90226745605469 105 L 79.90226745605469 36.37000274658203 L 85.84226989746094 36.37000274658203 L 87.9522705078125 44.41999816894531 C 94.37893676757812 38.17333221435547 102.03559875488281 35.003334045410156 110.92227172851562 34.910003662109375 L 109.86227416992188 44.41999816894531 C 101.85560607910156 44.41999816894531 95.47560119628906 46.7933349609375 90.72227478027344 51.540000915527344 L 90.72227478027344 105 ZM 155.03225708007812 38.08000183105469 L 152.92225646972656 45.08000183105469 C 149.04891967773438 44.106666564941406 145.13226318359375 43.619998931884766 141.17225646972656 43.619998931884766 C 137.21224975585938 43.619998931884766 134.30892944335938 43.88666534423828 132.46224975585938 44.41999816894531 C 130.61558532714844 44.9466667175293 129.31558227539062 45.869998931884766 128.562255859375 47.189998626708984 C 127.81558990478516 48.5099983215332 127.3555908203125 49.6966667175293 127.18225860595703 50.75 C 127.00225830078125 51.810001373291016 126.9122543334961 53.439998626708984 126.9122543334961 55.63999938964844 L 126.9122543334961 85.72999572753906 C 126.9122543334961 94.00333404541016 131.138916015625 98.13999938964844 139.59225463867188 98.13999938964844 C 143.0189208984375 98.13999938964844 147.7255859375 97.43333435058594 153.71224975585938 96.02000427246094 L 155.29225158691406 103.1500015258789 C 150.2789306640625 105.4366683959961 144.6922607421875 106.58000183105469 138.53225708007812 106.58000183105469 C 134.3055877685547 106.58000183105469 130.8955841064453 106.12000274658203 128.30226135253906 105.19999694824219 C 125.70892333984375 104.27333068847656 123.86225891113281 103.23999786376953 122.76225280761719 102.0999984741211 C 121.6622543334961 100.95333099365234 120.71559143066406 99.89666748046875 119.92225646972656 98.93000030517578 C 119.12892150878906 97.96333312988281 118.49225616455078 96.55332946777344 118.01225280761719 94.69999694824219 C 117.52558898925781 92.85333251953125 117.14892578125 91.25 116.88225555419922 89.88999938964844 C 116.62225341796875 88.52333068847656 116.44892120361328 86.61000061035156 116.36225891113281 84.1500015258789 C 116.09558868408203 79.92333221435547 115.9622573852539 75.96333312988281 115.9622573852539 72.27000427246094 L 115.9622573852539 64.3499984741211 C 115.9622573852539 59.68333435058594 116.13892364501953 56.34000015258789 116.49225616455078 54.31999969482422 C 116.84558868408203 52.2933349609375 117.19558715820312 50.37666702270508 117.54225158691406 48.56999969482422 C 117.89559173583984 46.77000045776367 118.38225555419922 45.40666580200195 119.00225830078125 44.47999954223633 C 119.61558532714844 43.560001373291016 120.33892059326172 42.483333587646484 121.17225646972656 41.25 C 122.01225280761719 40.01667022705078 123.02558898925781 39.09333038330078 124.2122573852539 38.480003356933594 C 125.39892578125 37.86000061035156 126.73892211914062 37.24333190917969 128.2322540283203 36.62999725341797 C 130.6122589111328 35.48332977294922 134.46224975585938 34.910003662109375 139.78225708007812 34.910003662109375 C 145.10891723632812 34.910003662109375 150.1922607421875 35.96666717529297 155.03225708007812 38.08000183105469 ZM 212.58383178710938 57.47999954223633 L 212.58383178710938 105 L 201.7638397216797 105 L 201.7638397216797 56.029998779296875 C 201.7638397216797 51.71666717529297 201.1038360595703 48.68000030517578 199.78384399414062 46.91999816894531 C 198.46383666992188 45.15999984741211 195.31716918945312 44.279998779296875 190.34384155273438 44.279998779296875 C 185.37051391601562 44.279998779296875 182.00384521484375 45.27000045776367 180.24383544921875 47.25 C 178.4838409423828 49.22999954223633 177.6038360595703 52.06999969482422 177.6038360595703 55.77000045776367 L 177.6038360595703 105 L 166.78384399414062 105 L 166.78384399414062 9.970001220703125 L 176.94384765625 9.970001220703125 L 176.94384765625 42.29999923706055 C 181.08383178710938 37.90666961669922 187.02383422851562 35.709999084472656 194.7638397216797 35.709999084472656 C 202.24383544921875 35.709999084472656 207.17050170898438 37.953330993652344 209.54383850097656 42.439998626708984 C 211.5705108642578 46.220001220703125 212.58383178710938 51.233333587646484 212.58383178710938 57.47999954223633 ZM 230.3788299560547 36.37000274658203 L 241.19882202148438 36.37000274658203 L 241.19882202148438 105 L 230.3788299560547 105 L 230.3788299560547 36.37000274658203 M 232.88882446289062 10.5 C 232.88882446289062 10.5 233.0421600341797 10.476669311523438 233.3488311767578 10.430000305175781 C 233.65548706054688 10.383331298828125 234.4688262939453 10.360000610351562 235.788818359375 10.360000610351562 C 237.10882568359375 10.360000610351562 238.0754852294922 10.406669616699219 238.68882751464844 10.5 C 239.30882263183594 10.586669921875 239.9688262939453 10.849998474121094 240.6688232421875 11.290000915527344 C 241.98883056640625 11.903335571289062 242.64881896972656 13.419998168945312 242.64881896972656 15.839996337890625 C 242.64881896972656 18.26000213623047 242.51882934570312 19.933334350585938 242.25881958007812 20.860000610351562 C 241.99215698242188 21.779998779296875 241.48548889160156 22.44000244140625 240.73883056640625 22.839996337890625 C 239.99215698242188 23.23332977294922 239.30882263183594 23.47333526611328 238.68882751464844 23.55999755859375 C 238.0754852294922 23.64666748046875 237.10882568359375 23.69000244140625 235.788818359375 23.69000244140625 C 234.4688262939453 23.69000244140625 233.5021514892578 23.64666748046875 232.88882446289062 23.55999755859375 C 232.26882934570312 23.47333526611328 231.60882568359375 23.253334045410156 230.90882873535156 22.900001525878906 C 229.5888214111328 22.199996948242188 228.9288330078125 20.639999389648438 228.9288330078125 18.220001220703125 C 228.9288330078125 15.800003051757812 229.05882263183594 14.126663208007812 229.31881713867188 13.199996948242188 C 229.5854949951172 12.279998779296875 230.0921630859375 11.620002746582031 230.8388214111328 11.220001220703125 C 231.5854949951172 10.826667785644531 232.26882934570312 10.586669921875 232.88882446289062 10.5 ZM 293.64349365234375 86.52000427246094 L 293.64349365234375 45.599998474121094 C 288.803466796875 44.63333511352539 284.2934875488281 44.150001525878906 280.11346435546875 44.150001525878906 C 275.9334716796875 44.150001525878906 273.1168212890625 44.98666763305664 271.6634826660156 46.65999984741211 C 270.216796875 48.33333206176758 269.49346923828125 51.63333511352539 269.49346923828125 56.560001373291016 L 269.49346923828125 86.26000213623047 C 269.49346923828125 90.56666564941406 270.1534729003906 93.5999984741211 271.4734802246094 95.36000061035156 C 272.7934875488281 97.12000274658203 275.9367980957031 98 280.9034729003906 98 C 285.8768005371094 98 289.24346923828125 97.01000213623047 291.00347900390625 95.02999877929688 C 292.76348876953125 93.05000305175781 293.64349365234375 90.21333312988281 293.64349365234375 86.52000427246094 M 258.4034729003906 75.95999908447266 C 258.4034729003906 75.95999908447266 258.4034729003906 73.20999908447266 258.4034729003906 67.70999908447266 C 258.4034729003906 62.209999084472656 258.58013916015625 58.29666519165039 258.9334716796875 55.970001220703125 C 259.28680419921875 53.63666534423828 259.6368103027344 51.52333450317383 259.9834899902344 49.630001068115234 C 260.3368225097656 47.73666763305664 260.8001403808594 46.28333282470703 261.37347412109375 45.27000045776367 C 261.9468078613281 44.26333236694336 262.650146484375 43.143333435058594 263.4834899902344 41.90999984741211 C 264.3168029785156 40.676666259765625 265.2834777832031 39.753334045410156 266.38348388671875 39.13999938964844 C 267.4834899902344 38.519996643066406 268.7401428222656 37.90333557128906 270.1534729003906 37.290000915527344 C 272.70013427734375 36.236663818359375 276.39349365234375 35.709999084472656 281.2334899902344 35.709999084472656 C 286.073486328125 35.709999084472656 290.4301452636719 36.279998779296875 294.303466796875 37.41999816894531 L 294.303466796875 9.970001220703125 L 304.4634704589844 9.970001220703125 L 304.4634704589844 105 L 298.5234680175781 105 L 296.8134765625 98.52999877929688 C 295.14013671875 100.91000366210938 292.96014404296875 102.73666381835938 290.2734680175781 104.01000213623047 C 287.5934753417969 105.28333282470703 285.30682373046875 106.02999877929688 283.4134826660156 106.25 C 281.5201416015625 106.47000122070312 279.21014404296875 106.58000183105469 276.4834899902344 106.58000183105469 C 269.09014892578125 106.58000183105469 264.2301330566406 104.22666931152344 261.9034729003906 99.5199966430664 C 259.5701599121094 94.8133316040039 258.4034729003906 86.95999908447266 258.4034729003906 75.95999908447266 ZM 332.5533142089844 55.11000061035156 L 332.5533142089844 68.69999694824219 C 341.5332946777344 68.69999694824219 346.8799743652344 68.3699951171875 348.59332275390625 67.70999908447266 C 350.31329345703125 67.05000305175781 351.8299865722656 66.3699951171875 353.143310546875 65.66999816894531 C 355.5233154296875 64.4366683959961 356.71331787109375 62.016666412353516 356.71331787109375 58.40999984741211 L 356.71331787109375 55.369998931884766 C 356.71331787109375 51.05666732788086 356.0533142089844 48.02000045776367 354.7333068847656 46.2599983215332 C 353.4132995605469 44.5 350.2666320800781 43.619998931884766 345.2933044433594 43.619998931884766 C 340.3199768066406 43.619998931884766 336.95330810546875 44.61000061035156 335.19329833984375 46.59000015258789 C 333.4333190917969 48.56999969482422 332.5533142089844 51.40999984741211 332.5533142089844 55.11000061035156 M 333.81329345703125 36.55999755859375 C 333.81329345703125 36.55999755859375 334.1766357421875 36.39666748046875 334.9033203125 36.06999969482422 C 335.6299743652344 35.736663818359375 336.9599609375 35.459999084472656 338.893310546875 35.23999786376953 C 340.8266296386719 35.019996643066406 343.5766296386719 34.910003662109375 347.143310546875 34.910003662109375 C 350.70330810546875 34.910003662109375 354.0233154296875 35.39666748046875 357.1033020019531 36.37000274658203 C 360.1833190917969 37.336669921875 362.4499816894531 38.85333251953125 363.9033203125 40.91999816894531 C 365.35662841796875 42.98666763305664 366.3266296386719 45.0966682434082 366.81329345703125 47.25 C 367.2933044433594 49.40999984741211 367.5333251953125 51.87666702270508 367.5333251953125 54.650001525878906 C 367.5333251953125 57.41666793823242 367.35662841796875 59.70333480834961 367.0032958984375 61.5099983215332 C 366.6566467285156 63.31666564941406 366.239990234375 64.87666320800781 365.7532958984375 66.19000244140625 C 365.2666320800781 67.50999450683594 364.4732971191406 68.67666625976562 363.373291015625 69.69000244140625 C 362.2733154296875 70.70333862304688 361.2633056640625 71.5633316040039 360.34332275390625 72.27000427246094 C 359.4166259765625 72.97000122070312 358.0533142089844 73.5633316040039 356.2532958984375 74.05000305175781 C 354.4466552734375 74.52999877929688 352.88330078125 74.90333557128906 351.56329345703125 75.16999816894531 C 350.2433166503906 75.4366683959961 348.3533020019531 75.65666198730469 345.893310546875 75.83000183105469 C 342.19329833984375 76.09666442871094 337.74664306640625 76.22999572753906 332.5533142089844 76.22999572753906 L 332.5533142089844 86.12999725341797 C 332.5533142089844 90.70333099365234 333.5233154296875 93.80332946777344 335.46331787109375 95.43000030517578 C 337.3966369628906 97.0566635131836 340.34332275390625 97.87000274658203 344.3033142089844 97.87000274658203 C 351.6099853515625 97.87000274658203 358.1666259765625 96.63999938964844 363.9732971191406 94.18000030517578 L 366.08331298828125 100.77999877929688 C 359.4833068847656 104.64666748046875 352.1799621582031 106.58000183105469 344.1733093261719 106.58000183105469 C 339.9466552734375 106.58000183105469 336.5366516113281 106.12000274658203 333.94329833984375 105.19999694824219 C 331.3499755859375 104.27333068847656 329.5032958984375 103.23999786376953 328.4033203125 102.0999984741211 C 327.3033142089844 100.95333099365234 326.35662841796875 99.89666748046875 325.56329345703125 98.93000030517578 C 324.7699890136719 97.96333312988281 324.13330078125 96.55332946777344 323.6533203125 94.69999694824219 C 323.1666259765625 92.85333251953125 322.78997802734375 91.25 322.5233154296875 89.88999938964844 C 322.2633056640625 88.52333068847656 322.0899658203125 86.61000061035156 322.0032958984375 84.1500015258789 C 321.73663330078125 79.92333221435547 321.6033020019531 75.96333312988281 321.6033020019531 72.27000427246094 L 321.6033020019531 64.3499984741211 C 321.6033020019531 59.68333435058594 321.77996826171875 56.34000015258789 322.13330078125 54.31999969482422 C 322.48663330078125 52.2933349609375 322.8366394042969 50.37666702270508 323.1833190917969 48.56999969482422 C 323.5366516113281 46.77000045776367 324.0233154296875 45.40666580200195 324.643310546875 44.47999954223633 C 325.25665283203125 43.560001373291016 325.97998046875 42.483333587646484 326.81329345703125 41.25 C 327.6533203125 40.01667022705078 328.6666259765625 39.09333038330078 329.8533020019531 38.480003356933594 C 331.03997802734375 37.86000061035156 332.3599853515625 37.220001220703125 333.81329345703125 36.55999755859375 ZM 392.8609619140625 9.970001220703125 L 392.8609619140625 105 L 382.04095458984375 105 L 382.04095458984375 9.970001220703125 L 392.8609619140625 9.970001220703125 M 396.03094482421875 68.56999969482422 L 415.7009582519531 36.37000274658203 L 427.1809387207031 36.37000274658203 L 407.5109558105469 68.56999969482422 L 428.240966796875 105 L 416.7509460449219 105 L 396.03094482421875 68.56999969482422 ZM 454.35479736328125 24.48999786376953 L 454.35479736328125 36.37000274658203 L 466.5047912597656 36.37000274658203 L 466.5047912597656 44.150001525878906 L 454.35479736328125 44.150001525878906 L 454.35479736328125 88.5 C 454.35479736328125 92.28666687011719 454.75146484375 94.97000122070312 455.5447998046875 96.55000305175781 C 456.338134765625 98.13666534423828 457.83477783203125 98.93000030517578 460.0347900390625 98.93000030517578 C 462.23480224609375 98.93000030517578 464.21478271484375 98.75333404541016 465.97479248046875 98.4000015258789 L 466.894775390625 105 C 463.7281188964844 106.05332946777344 460.71478271484375 106.58000183105469 457.85479736328125 106.58000183105469 C 454.9947814941406 106.58000183105469 452.664794921875 106.27333068847656 450.8647766113281 105.66000366210938 C 449.0581359863281 105.04666900634766 447.67144775390625 104.30000305175781 446.70477294921875 103.41999816894531 C 445.7381286621094 102.54000091552734 444.9881286621094 101.22000122070312 444.45477294921875 99.45999908447266 C 443.8414611816406 97.08000183105469 443.5347900390625 93.42666625976562 443.5347900390625 88.5 L 443.5347900390625 44.150001525878906 L 434.164794921875 44.150001525878906 L 434.164794921875 38.349998474121094 L 443.5347900390625 36.37000274658203 L 449.47479248046875 24.48999786376953 L 454.35479736328125 24.48999786376953 Z" transform="matrix(1.0669939517974854, 0, 0, 1.0669939517974854, 0.716716468334198, -4.971678733825684)" style="fill: rgb(255, 255, 255); white-space: pre; color: rgb(255, 255, 255);"/></svg>