<?xml version="1.0" encoding="utf-8"?>
<!-- Generator: Adobe Illustrator 27.5.0, SVG Export Plug-In . SVG Version: 6.00 Build 0)  -->
<svg version="1.1" id="Layer_1" xmlns="http://www.w3.org/2000/svg" xmlns:xlink="http://www.w3.org/1999/xlink" x="0px" y="0px"
	 viewBox="0 0 640 640" style="enable-background:new 0 0 640 640;" xml:space="preserve">
<style type="text/css">
	.st0{opacity:0.983;fill-rule:evenodd;clip-rule:evenodd;fill:#FFFFFF;enable-background:new    ;}
</style>
<g>
	<path class="st0" d="M318.5,1.5c57.2,32.9,114.4,65.9,171.5,99c0.2,53.7,0.7,107.3,1.5,161c45.2,25.7,90.2,51.7,135,78
		c1.2,66.3,1.3,132.7,0.5,199c-56.6,33.1-113.5,65.7-170.5,98c-45.8-25.7-91.5-51.7-137-78c-45.7,26-91.2,52.3-136.5,79
		c-57-33-114-66-171-99c-0.8-66.3-0.7-132.7,0.5-199c45-25.8,89.8-51.8,134.5-78c0.3-53.7,0.7-107.3,1-161
		C205,67.6,261.8,34.6,318.5,1.5z M317.5,80.5c34.9,19.1,69.6,38.8,104,59c1.3,20.7,1.3,41.3,0,62c-34.1-19.8-68.3-39.5-102.5-59
		c-34.6,19.6-68.9,39.6-103,60c-0.8-21-0.7-42,0.5-63C250.4,120.1,284.1,100.4,317.5,80.5z M317.5,221.5c2.5,0.3,4.9,1.1,7,2.5
		c37.7,21.8,75.3,43.7,113,65.5c1.2,46.7,1.3,93.3,0.5,140c-38.5,22.6-77.2,44.9-116,67c-40.8-23.1-81.5-46.4-122-70
		c-0.8-45.7-0.7-91.3,0.5-137C239.7,267.1,278.7,244.4,317.5,221.5z M506.5,348.5c17.4,10.4,34.9,20.8,52.5,31c0.7,40,0.7,80,0,120
		c-34.2,19.5-68.4,39.2-102.5,59c-17.7-10.2-35.3-20.3-53-30.5c34.1-19.3,68.1-38.8,102-58.5C506.5,429.2,506.8,388.8,506.5,348.5z
		 M130.5,349.5c0.8,38.5,1.3,77.2,1.5,116c35.2,20.5,70.3,41,105.5,61.5c-18.3,10.5-36.7,21-55,31.5c-34-19.7-68-39.3-102-59
		c-1.2-40-1.3-80-0.5-120C97,369.6,113.8,359.6,130.5,349.5z"/>
</g>
</svg>
