<?xml version="1.0" encoding="UTF-8"?>
<svg id="Layer_1" data-name="Layer 1" xmlns="http://www.w3.org/2000/svg" viewBox="0 0 109.76 45.74">
  <defs>
    <style>
      .cls-1 {
        letter-spacing: 0em;
      }

      .cls-2 {
        letter-spacing: -.01em;
      }

      .cls-3 {
        letter-spacing: 0em;
      }

      .cls-4 {
        letter-spacing: -.02em;
      }

      .cls-5 {
        fill: #d6dae9;
      }

      .cls-6 {
        fill: #d14181;
        font-family: MyriadPro-Regular, 'Myriad Pro';
        font-size: 42.08px;
      }

      .cls-7 {
        letter-spacing: 0em;
      }
    </style>
  </defs>
  <path class="cls-5" d="m22.25,8.54C11.84,3.67-.5,11.79,3.14,23.34c1.46,4.49,5.96,8.04,10.61,8.14,4.54.22,8.44-3.19,8.89-7.63.68-3.56,5.93-2.69,5.43.9-1.62,8.79-11.25,13.52-19.18,9.59C-1.38,29.76-3.42,14.9,6.31,8.64c4.91-3.06,11.27-3.02,16.03-.28.11.06.02.23-.09.18h0Z"/>
  <text class="cls-6" transform="translate(28.76 35.22) scale(.74 1)"><tspan class="cls-3" x="0" y="0">.</tspan><tspan class="cls-7" x="8.82" y="0">L</tspan><tspan class="cls-4" x="29.01" y="0">A</tspan><tspan class="cls-2" x="53.97" y="0">N</tspan><tspan class="cls-1" x="81.18" y="0">D</tspan></text>
</svg>