<svg xmlns="http://www.w3.org/2000/svg" viewBox="0 0 356.42 127.89"><defs><style>.cls-1{fill:#bacbc1;}.cls-2{fill:#b4abb0;}.cls-3{fill:#d8917d;}.cls-4{fill:#b7cae8;}.cls-5{fill:#cac5c0;}.cls-6{fill:#e7deb5;}</style></defs><g id="Layer_2" data-name="Layer 2"><g id="Layer_2-2" data-name="Layer 2"><path class="cls-1" d="M290.47,126.51,355.6,61.38a2.79,2.79,0,0,0-.13-4.07l-65.14-56a2.78,2.78,0,0,0-4.62,2.09V12a2.82,2.82,0,0,0,1,2.15l50.65,43.2a2.79,2.79,0,0,1,.19,4.12l-51,51a2.77,2.77,0,0,0-.82,2v10.12A2.79,2.79,0,0,0,290.47,126.51Z"/><path class="cls-2" d="M229.89,122.8,149.26,1.16a2.78,2.78,0,0,0-4.07.14l-57,106.13a2.8,2.8,0,0,0,2.1,4.63h10.55a2.77,2.77,0,0,0,2.14-1L146.19,26.4a2.79,2.79,0,0,1,4.12-.19l65.52,100.53a2.79,2.79,0,0,0,2,.82h10.12A2.79,2.79,0,0,0,229.89,122.8Z"/><path class="cls-3" d="M272.64,124.89a2.79,2.79,0,0,1-2.79-2.79V2.79a2.79,2.79,0,0,1,4.76-2L281.76,8a2.84,2.84,0,0,1,.82,2v99.42c0,1.54.13,9.69.13,15.69"/><path class="cls-3" d="M281.89,122.8,217.26,1.16a2.78,2.78,0,0,0-4.07.14l-22,53.13c-1.48,2.63-.48,3.63,1.52,6.63l5,7c.46.7.92,1,1.63.56l.18-.13a1.59,1.59,0,0,0,.58-.89l14.59-39.7a2.79,2.79,0,0,1,4.12-.19l49,99a2.79,2.79,0,0,0,2,.82h10.12A2.79,2.79,0,0,0,281.89,122.8Z"/><path class="cls-4" d="M73.85,2.79V125.1a2.79,2.79,0,0,0,2.79,2.79h74.3a2.79,2.79,0,0,0,2-4.76L145.76,116a2.78,2.78,0,0,0-2-.81H89.36a2.78,2.78,0,0,1-2.78-2.79V10a2.84,2.84,0,0,0-.82-2L78.61.82A2.79,2.79,0,0,0,73.85,2.79Z"/><rect class="cls-5" x="46.71" y="57.16" width="18" height="18" rx="2.79" transform="translate(63.1 -20.01) rotate(45)"/><path class="cls-6" d="M66,.92.82,66.05A2.79,2.79,0,0,0,1,70.12l65.13,57a2.79,2.79,0,0,0,4.63-2.1v-9.54a2.82,2.82,0,0,0-1-2.15L19.05,70.11A2.79,2.79,0,0,1,18.87,66l51-51a2.79,2.79,0,0,0,.82-2V2.89A2.79,2.79,0,0,0,66,.92Z"/></g></g></svg>