<?xml version="1.0" encoding="utf-8"?>
<!-- Generator: Adobe Illustrator 27.5.0, SVG Export Plug-In . SVG Version: 6.00 Build 0)  -->
<svg version="1.1" id="Layer_2_00000146497233288627904220000005851454321944112540_"
	 xmlns="http://www.w3.org/2000/svg" xmlns:xlink="http://www.w3.org/1999/xlink" x="0px" y="0px" viewBox="0 0 1023.8 1031.3"
	 style="enable-background:new 0 0 1023.8 1031.3;" xml:space="preserve">
<style type="text/css">
	.st0{fill:#D5DAE9;}
</style>
<path class="st0" d="M861.6,428.7c6.9,31.6,10.1,64.7,9,98c-1.1,33.3-6.9,67-17.7,98.9c-5.4,16-12,31.5-19.6,46.4
	c-7.6,14.9-16.3,29.1-25.8,42.6c-9.5,13.5-19.8,26.2-30.6,38.3c-5.4,6-11,11.9-16.7,17.5l-4.4,4.4c-1.5,1.5-3.1,3-4.7,4.5
	c-3.2,2.9-6.3,5.8-9.6,8.6c-26.2,22.2-55.7,39-86.4,51.2c-30.8,12.2-63,19.9-95.5,23.5c-32.5,3.5-65.4,2.9-97.6-2
	c-8.1-1.2-16.1-2.7-24.1-4.4c-8-1.8-16.1-3.9-24-6.2c-15.9-4.8-31.4-10.8-46.4-18.1c-15-7.2-29.3-15.6-42.9-25
	c-13.6-9.5-26.5-19.9-38.4-31.3c-23.9-22.8-44.1-49.2-60-77.9c-15.9-28.7-27.4-59.5-34.4-91.3c-7-31.7-9.5-64.3-7.8-96.4
	c0.4-8,1.1-16,2.1-24c1.1-7.9,2.5-15.8,4.1-23.6c3.3-15.6,7.5-31.2,12.9-46.4c5.4-15.2,12-30,19.9-44.3
	c7.9-14.2,17.1-27.9,27.7-40.5c10.7-12.5,22.8-24,36.2-33.8c13.4-9.7,28-17.9,43.3-23.8c15.3-5.9,31.3-9.8,47.3-11.7
	c16-1.9,32-1.8,47.5-0.2c7.9,0.8,13.6,7.8,12.9,15.7c-0.7,7.3-6.9,12.8-14.1,12.9h-0.1c-27.7,0.4-54.6,6.4-77.9,18.4
	c-11.6,6-22.4,13.5-32.1,22.1c-9.7,8.7-18.2,18.5-25.7,29.3c-14.9,21.5-25.4,46.2-32.1,72.2c-3.3,13-5.8,26.3-7.4,39.7
	c-0.8,6.7-1.4,13.5-1.8,20.2c-0.5,6.7-1,13.4-1.2,20.1c-0.7,26.8,2.1,53.6,8.5,79.3c6.4,25.7,16.4,50.4,29.7,73
	c13.3,22.6,29.9,43.2,49.1,60.6c9.6,8.8,19.9,16.7,30.7,23.8c10.8,7.1,22.1,13.4,33.9,18.7c11.7,5.3,23.9,9.7,36.4,13.2
	c6.2,1.7,12.5,3.1,18.9,4.4c6.5,1.3,13,2.4,19.5,3.2c26.1,3.5,52.7,3.5,78.8,0.2c26.1-3.3,51.7-10,75.5-20
	c23.8-10,45.9-23.3,64.5-39.7c2.3-2,4.6-4.1,6.8-6.3c1.1-1.1,2.2-2.1,3.3-3.2c0.5-0.6,1.1-1.1,1.6-1.7l1.7-1.8
	c4.6-4.9,9-9.9,13.3-15c8.5-10.2,16.4-20.7,23.5-31.6c7.1-10.9,13.4-22.2,18.8-33.7c5.4-11.6,10-23.5,13.5-35.6
	c7.2-24.3,10.7-49.5,10.6-75.2c0-25.7-3.7-51.6-9.2-77.6l0-0.1c-5-24,10.3-47.5,34.2-52.5C833,389.8,856.4,405,861.6,428.7
	L861.6,428.7z"/>
<polygon class="st0" points="776.8,318 763.3,511 819.5,447.7 902.3,465.2 "/>
</svg>
