<?xml version="1.0" encoding="UTF-8"?>
<svg id="Layer_2" data-name="Layer 2" xmlns="http://www.w3.org/2000/svg" viewBox="0 0 1023.82 1031.3">
  <defs>
    <style>
      .cls-1 {
        fill: #d5dae9;
      }
    </style>
  </defs>
  <path class="cls-1" d="m861.62,428.73c6.94,31.64,10.06,64.67,8.95,98-1.1,33.31-6.9,66.95-17.67,98.89-5.37,15.97-11.97,31.49-19.59,46.38-7.63,14.89-16.31,29.11-25.78,42.61-9.48,13.49-19.77,26.25-30.62,38.3-5.43,6.02-11.01,11.86-16.7,17.53l-4.42,4.37c-1.53,1.52-3.1,2.99-4.67,4.47-3.15,2.94-6.35,5.79-9.62,8.56-26.15,22.16-55.66,38.99-86.43,51.23-30.81,12.25-62.99,19.93-95.49,23.47-32.5,3.51-65.36,2.86-97.64-2.01-8.07-1.21-16.1-2.69-24.08-4.43-8.04-1.79-16.12-3.86-24.05-6.25-15.88-4.83-31.42-10.82-46.36-18.06-14.97-7.17-29.3-15.62-42.94-25.02-13.58-9.48-26.47-19.92-38.39-31.35-23.92-22.77-44.11-49.22-60-77.86-15.86-28.67-27.37-59.55-34.38-91.27-7.04-31.72-9.49-64.27-7.77-96.39.42-8.03,1.13-16.04,2.09-24,1.14-7.89,2.52-15.76,4.14-23.59,3.26-15.65,7.46-31.18,12.91-46.36,5.42-15.18,11.99-30.04,19.88-44.29,7.89-14.24,17.08-27.9,27.73-40.47,10.69-12.53,22.8-23.97,36.16-33.75,13.39-9.73,27.97-17.87,43.32-23.75,15.33-5.92,31.29-9.78,47.26-11.67,15.99-1.85,31.95-1.76,47.55-.21,7.88.78,13.64,7.81,12.85,15.69-.73,7.33-6.86,12.83-14.06,12.92h-.1c-27.72.41-54.65,6.38-77.95,18.41-11.65,6.01-22.41,13.45-32.08,22.09-9.66,8.67-18.22,18.55-25.67,29.27-14.93,21.47-25.44,46.24-32.09,72.19-3.31,12.99-5.81,26.26-7.44,39.69-.82,6.72-1.42,13.47-1.83,20.25-.52,6.72-1.01,13.41-1.16,20.12-.72,26.81,2.06,53.57,8.5,79.29,6.42,25.72,16.43,50.42,29.74,73.03,13.34,22.58,29.85,43.19,49.12,60.62,9.59,8.77,19.9,16.68,30.67,23.83,10.83,7.07,22.14,13.38,33.91,18.66,11.74,5.35,23.92,9.69,36.35,13.15,6.23,1.71,12.49,3.14,18.87,4.42,6.46,1.28,12.96,2.36,19.49,3.22,26.13,3.46,52.74,3.49,78.84.19,26.08-3.32,51.68-9.98,75.52-19.98,23.84-9.97,45.93-23.32,64.52-39.67,2.33-2.04,4.59-4.13,6.8-6.26,1.1-1.07,2.2-2.13,3.27-3.23.54-.56,1.06-1.06,1.63-1.66l1.72-1.84c4.58-4.9,9.03-9.9,13.29-14.99,8.53-10.19,16.41-20.74,23.51-31.64,7.08-10.91,13.39-22.17,18.8-33.74,5.4-11.58,9.95-23.45,13.55-35.58,7.19-24.26,10.66-49.52,10.6-75.18.03-25.68-3.74-51.64-9.21-77.65l-.02-.12c-5.04-23.95,10.3-47.45,34.25-52.49,23.82-5.01,47.2,10.15,52.41,33.88Z"/>
  <polygon class="cls-1" points="776.78 317.97 763.31 510.96 819.52 447.71 902.3 465.18 776.78 317.97"/>
</svg>