<?xml version="1.0" encoding="UTF-8"?>
<svg id="Layer_2" data-name="Layer 2" xmlns="http://www.w3.org/2000/svg" viewBox="0 0 1023.82 1031.3">
  <defs>
    <style>
      .cls-1 {
        fill: #1d1f21;
      }
    </style>
  </defs>
  <path class="cls-1" d="m393.05,299.77c-21.94,14.99-42.63,31.12-60.38,49.68-17.81,18.48-32.78,39.11-44.38,61.61-5.79,11.25-10.73,22.97-14.84,35.06-4.1,12.1-7.33,24.6-9.78,37.37-2.43,12.78-4.04,25.85-4.93,39.11-.44,6.63-.69,13.31-.78,20.02l-.03,2.52c0,.83.02,1.55.03,2.33,0,1.53.07,3.06.12,4.59.12,3.07.31,6.14.58,9.23,2.11,24.67,8.81,49.59,19.12,73.28,10.29,23.72,24.16,46.24,40.69,66.69,16.55,20.44,35.79,38.84,57.04,54.42,5.31,3.9,10.75,7.62,16.3,11.17,5.5,3.49,11,6.79,16.69,9.87,11.36,6.1,23.16,11.4,35.34,15.66,12.15,4.33,24.69,7.6,37.4,9.99,12.73,2.29,25.65,3.72,38.64,4.02,25.98.75,52.15-2.7,77.41-9.77,25.26-7.11,49.57-18.01,72.01-32.14,22.45-14.11,42.98-31.51,61.01-51.36,4.54-4.95,8.81-10.12,13.09-15.33,4.39-5.18,8.63-10.47,12.69-15.88,8.12-10.82,15.5-22.13,22.1-33.8,13.16-23.34,22.71-48.49,26.79-74.32,2.04-12.9,2.7-25.95,1.73-38.89-1-12.94-3.62-25.75-7.87-38.15-8.5-24.81-23.81-47.75-43.54-67.23l-.07-.07c-5.64-5.57-5.69-14.65-.13-20.28,5.18-5.24,13.4-5.66,19.06-1.2,12.33,9.68,23.92,20.66,34.18,33.05,10.22,12.42,19.06,26.25,26.03,41.13,7.01,14.87,11.91,30.83,14.84,47.12,2.89,16.31,3.71,32.95,2.75,49.39-1.02,16.44-3.83,32.66-7.99,48.4-4.17,15.75-9.71,31.02-16.3,45.73-6.57,14.73-14.28,28.84-22.76,42.4-4.25,6.78-8.7,13.4-13.33,19.89-4.81,6.4-9.84,12.68-15.09,18.77-20.98,24.38-45.28,46.18-72.31,64.21-27.01,18.04-56.69,32.37-87.98,42.09-31.29,9.68-64.17,14.8-97.19,14.68-16.51,0-33.04-1.38-49.41-3.94-16.35-2.65-32.54-6.47-48.31-11.65-15.79-5.11-31.16-11.54-45.96-19.05-7.38-3.77-14.65-7.86-21.69-12.13-6.96-4.27-13.78-8.76-20.45-13.47-26.67-18.82-50.84-41.1-71.87-66.12-21.01-25.04-38.92-52.86-52.69-83.02-13.75-30.13-23.4-62.7-26.94-96.8-.44-4.26-.78-8.54-1.02-12.84-.11-2.15-.23-4.3-.28-6.46l-.17-6.22c-.18-8.04-.17-16.11.08-24.21.51-16.21,1.91-32.53,4.4-48.83,2.51-16.3,6.09-32.58,10.88-48.6,4.8-16.02,10.78-31.79,17.95-47.04,14.33-30.51,33.43-58.8,55.68-83.61,22.26-24.83,47.37-46.51,74.28-64.55,20.33-13.63,47.86-8.2,61.49,12.13,13.56,20.22,8.26,47.56-11.8,61.26l-.12.08Z"/>
  <polygon class="cls-1" points="481.36 205.05 288.88 224.44 360.73 269.13 357.53 353.68 481.36 205.05"/>
</svg>